<?xml version="1.0" encoding="UTF-8"?>
<mxfile host="app.diagrams.net" modified="2024-03-14T12:00:00.000Z" agent="Mozilla/5.0" version="21.7.5" etag="your-etag" type="device">
  <diagram id="alerts-flow" name="FarmTech Alerts Flow">
    <mxGraphModel dx="1422" dy="762" grid="1" gridSize="10" guides="1" tooltips="1" connect="1" arrows="1" fold="1" page="1" pageScale="1" pageWidth="1169" pageHeight="827" math="0" shadow="0">
      <root>
        <mxCell id="0"/>
        <mxCell id="1" parent="0"/>
        
        <!-- CloudWatch -->
        <mxCell id="cloudwatch" value="CloudWatch" style="shape=mxgraph.aws4.cloudwatch;html=1;dashed=0;fillColor=#232F3E;strokeColor=none;verticalLabelPosition=bottom;verticalAlign=top;align=center;html=1;fontSize=11;fontStyle=0;aspect=fixed;pointerEvents=1;" vertex="1" parent="1">
          <mxGeometry x="40" y="40" width="78" height="78" as="geometry"/>
        </mxCell>
        
        <!-- SNS -->
        <mxCell id="sns" value="SNS" style="shape=mxgraph.aws4.sns;html=1;dashed=0;fillColor=#232F3E;strokeColor=none;verticalLabelPosition=bottom;verticalAlign=top;align=center;html=1;fontSize=11;fontStyle=0;aspect=fixed;pointerEvents=1;" vertex="1" parent="1">
          <mxGeometry x="200" y="40" width="78" height="78" as="geometry"/>
        </mxCell>
        
        <!-- Lambda -->
        <mxCell id="lambda" value="Lambda" style="shape=mxgraph.aws4.lambda;html=1;dashed=0;fillColor=#232F3E;strokeColor=none;verticalLabelPosition=bottom;verticalAlign=top;align=center;html=1;fontSize=11;fontStyle=0;aspect=fixed;pointerEvents=1;" vertex="1" parent="1">
          <mxGeometry x="360" y="40" width="78" height="78" as="geometry"/>
        </mxCell>
        
        <!-- Email -->
        <mxCell id="email" value="Email" style="shape=mxgraph.aws4.ses;html=1;dashed=0;fillColor=#232F3E;strokeColor=none;verticalLabelPosition=bottom;verticalAlign=top;align=center;html=1;fontSize=11;fontStyle=0;aspect=fixed;pointerEvents=1;whiteSpace=wrap;fillColor=#D05C17;" vertex="1" parent="1">
          <mxGeometry x="360" y="160" width="78" height="78" as="geometry"/>
        </mxCell>
        
        <!-- SMS -->
        <mxCell id="sms" value="SMS" style="shape=mxgraph.aws4.sns;html=1;dashed=0;fillColor=#232F3E;strokeColor=none;verticalLabelPosition=bottom;verticalAlign=top;align=center;html=1;fontSize=11;fontStyle=0;aspect=fixed;pointerEvents=1;" vertex="1" parent="1">
          <mxGeometry x="520" y="160" width="78" height="78" as="geometry"/>
        </mxCell>
        
        <!-- Slack -->
        <mxCell id="slack" value="Slack" style="shape=mxgraph.aws4.slack;html=1;dashed=0;fillColor=#232F3E;strokeColor=none;verticalLabelPosition=bottom;verticalAlign=top;align=center;html=1;fontSize=11;fontStyle=0;aspect=fixed;pointerEvents=1;whiteSpace=wrap;fillColor=#4A154B;" vertex="1" parent="1">
          <mxGeometry x="680" y="160" width="78" height="78" as="geometry"/>
        </mxCell>
        
        <!-- Connections -->
        <mxCell id="conn1" value="Monitor" style="endArrow=classic;html=1;exitX=1;exitY=0.5;exitDx=0;exitDy=0;entryX=0;entryY=0.5;entryDx=0;entryDy=0;" edge="1" parent="1" source="cloudwatch" target="sns">
          <mxGeometry width="50" height="50" relative="1" as="geometry"/>
        </mxCell>
        
        <mxCell id="conn2" value="Process" style="endArrow=classic;html=1;exitX=1;exitY=0.5;exitDx=0;exitDy=0;entryX=0;entryY=0.5;entryDx=0;entryDy=0;" edge="1" parent="1" source="sns" target="lambda">
          <mxGeometry width="50" height="50" relative="1" as="geometry"/>
        </mxCell>
        
        <mxCell id="conn3" value="Send" style="endArrow=classic;html=1;exitX=0.5;exitY=1;exitDx=0;exitDy=0;entryX=0.5;entryY=0;entryDx=0;entryDy=0;" edge="1" parent="1" source="lambda" target="email">
          <mxGeometry width="50" height="50" relative="1" as="geometry"/>
        </mxCell>
        
        <mxCell id="conn4" value="Send" style="endArrow=classic;html=1;exitX=0.5;exitY=1;exitDx=0;exitDy=0;entryX=0.5;entryY=0;entryDx=0;entryDy=0;" edge="1" parent="1" source="lambda" target="sms">
          <mxGeometry width="50" height="50" relative="1" as="geometry"/>
        </mxCell>
        
        <mxCell id="conn5" value="Send" style="endArrow=classic;html=1;exitX=0.5;exitY=1;exitDx=0;exitDy=0;entryX=0.5;entryY=0;entryDx=0;entryDy=0;" edge="1" parent="1" source="lambda" target="slack">
          <mxGeometry width="50" height="50" relative="1" as="geometry"/>
        </mxCell>
        
      </root>
    </mxGraphModel>
  </diagram>
</mxfile> 